<?xml version="1.0" encoding="UTF-8" standalone="no"?>
<!-- Created with Inkscape (http://www.inkscape.org/) -->

<svg
   xmlns:dc="http://purl.org/dc/elements/1.1/"
   xmlns:cc="http://creativecommons.org/ns#"
   xmlns:rdf="http://www.w3.org/1999/02/22-rdf-syntax-ns#"
   xmlns:svg="http://www.w3.org/2000/svg"
   xmlns="http://www.w3.org/2000/svg"
   xmlns:sodipodi="http://sodipodi.sourceforge.net/DTD/sodipodi-0.dtd"
   xmlns:inkscape="http://www.inkscape.org/namespaces/inkscape"
   width="210mm"
   height="297mm"
   viewBox="0 0 744.09448819 1052.3622047"
   id="svg2"
   version="1.1"
   inkscape:version="0.91 r13725"
   sodipodi:docname="soldier.svg">
  <defs
     id="defs4">
    <clipPath
       clipPathUnits="userSpaceOnUse"
       id="clipPath4472">
      <path
         style="opacity:1;fill:#ffcc99;fill-opacity:1;stroke:#62370c;stroke-width:1.98033214;stroke-linecap:square;stroke-linejoin:miter;stroke-miterlimit:4;stroke-dasharray:none;stroke-dashoffset:0;stroke-opacity:0.98823529"
         d="m 594.125,639.98633 0,38.875 36.375,0 0,-38.875 -36.375,0 z m 21.3125,22.36523 a 5.1973338,5.2598338 0 0 1 5.19727,5.25977 5.1973338,5.2598338 0 0 1 -5.19727,5.25976 5.1973338,5.2598338 0 0 1 -5.19727,-5.25976 5.1973338,5.2598338 0 0 1 5.19727,-5.25977 z"
         id="path4474"
         inkscape:connector-curvature="0" />
    </clipPath>
  </defs>
  <sodipodi:namedview
     id="base"
     pagecolor="#ffffff"
     bordercolor="#666666"
     borderopacity="1.0"
     inkscape:pageopacity="0.0"
     inkscape:pageshadow="2"
     inkscape:zoom="1.4"
     inkscape:cx="226.57738"
     inkscape:cy="877.24257"
     inkscape:document-units="px"
     inkscape:current-layer="layer1"
     showgrid="false"
     inkscape:window-width="1661"
     inkscape:window-height="1037"
     inkscape:window-x="585"
     inkscape:window-y="112"
     inkscape:window-maximized="0" />
  <metadata
     id="metadata7">
    <rdf:RDF>
      <cc:Work
         rdf:about="">
        <dc:format>image/svg+xml</dc:format>
        <dc:type
           rdf:resource="http://purl.org/dc/dcmitype/StillImage" />
        <dc:title />
      </cc:Work>
    </rdf:RDF>
  </metadata>
  <g
     inkscape:label="Layer 1"
     inkscape:groupmode="layer"
     id="layer1">
    <g
       style="display:inline;opacity:1"
       id="g4580"
       inkscape:transform-center-x="0.75615342"
       inkscape:transform-center-y="22.064065"
       transform="matrix(0.99964262,0.02673265,-0.02673265,0.99964262,-618.45672,-578.00059)"
       inkscape:export-xdpi="32"
       inkscape:export-ydpi="32">
      <path
         style="opacity:1;fill:#af8c69;fill-opacity:1;stroke:#62370c;stroke-width:2;stroke-linecap:square;stroke-linejoin:miter;stroke-miterlimit:4;stroke-dasharray:none;stroke-dashoffset:0;stroke-opacity:1"
         d="m 808.6167,735.83939 c 4.47232,7.9448 0.5319,12.24748 -3.27368,14.59151 -7.93933,4.89021 -13.73536,3.48843 -16.73636,-3.8882 -2.79611,-6.87295 -1.35234,-15.33596 4.42273,-18.30382 5.77506,-2.96787 11.94752,1.13462 15.58731,7.60051 z"
         id="path4569"
         inkscape:connector-curvature="0"
         sodipodi:nodetypes="ssszs" />
      <path
         style="opacity:1;fill:#4d422b;fill-opacity:1;stroke:#62370c;stroke-width:2;stroke-linecap:square;stroke-linejoin:miter;stroke-miterlimit:4;stroke-dasharray:none;stroke-dashoffset:0;stroke-opacity:1"
         d="m 812.34955,709.32703 c 0,8.27084 -0.17076,29.25654 -13.93764,29.78687 -13.76687,0.53033 -15.35185,-21.51603 -15.35185,-29.78687 0,-8.27084 6.00439,-15.99829 14.64474,-15.99829 8.64035,0 14.64474,7.72745 14.64474,15.99829 z"
         id="path4571"
         inkscape:connector-curvature="0"
         sodipodi:nodetypes="szsss" />
      <rect
         style="opacity:1;fill:#4d422b;fill-opacity:1;stroke:#62370c;stroke-width:2;stroke-linecap:square;stroke-linejoin:miter;stroke-miterlimit:4;stroke-dasharray:none;stroke-dashoffset:0;stroke-opacity:1"
         id="rect4573"
         width="27.753941"
         height="11.136931"
         x="784.0047"
         y="728.33051" />
    </g>
    <g
       style="display:inline;opacity:1"
       id="g4530"
       transform="translate(-488.58416,-569.23547)"
       inkscape:export-xdpi="32"
       inkscape:export-ydpi="32">
      <path
         style="opacity:1;fill:#52402d;fill-opacity:1;stroke:#62370c;stroke-width:1.93900001;stroke-linecap:square;stroke-linejoin:miter;stroke-miterlimit:4;stroke-dasharray:none;stroke-dashoffset:0;stroke-opacity:1"
         d="m 550.11395,757.80804 30.94893,0 10.34144,4.281 0,4.281 -20.64518,0 -9.75505,0 -1.8488,-1.15625 -1.81754,1.15625 -7.2238,0 z"
         id="path4509"
         inkscape:connector-curvature="0"
         sodipodi:nodetypes="cccccccccc" />
      <path
         style="opacity:1;fill:#4d422b;fill-opacity:1;stroke:#62370c;stroke-width:2;stroke-linecap:square;stroke-linejoin:miter;stroke-miterlimit:4;stroke-dasharray:none;stroke-dashoffset:0;stroke-opacity:1"
         d="m 565.5,725.05273 a 17.287281,8.8898106 0 0 0 -17.28711,8.89063 17.287281,8.8898106 0 0 0 0.0371,0.54297 l 0,22.875 34.5,0 0,-23.03516 a 17.287281,8.8898106 0 0 0 0.0371,-0.38281 A 17.287281,8.8898106 0 0 0 565.5,725.05273 Z"
         id="path4511"
         inkscape:connector-curvature="0" />
      <rect
         y="746.96692"
         x="547.93488"
         height="10.710355"
         width="35.130219"
         id="rect4513"
         style="opacity:1;fill:#6a5f41;fill-opacity:1;stroke:#62370c;stroke-width:2;stroke-linecap:square;stroke-linejoin:miter;stroke-miterlimit:4;stroke-dasharray:none;stroke-dashoffset:0;stroke-opacity:1" />
    </g>
    <g
       id="g4276"
       transform="translate(-117.85714,2.8571429)">
      <path
         inkscape:export-ydpi="32"
         inkscape:export-xdpi="32"
         inkscape:connector-curvature="0"
         id="path4496"
         d="m 175.44909,13.30758 c -9.9287,-0.0202 -19.9066,2.38364 -28.63672,7.13525 -6.68016,3.68179 -12.62064,9.53854 -14.49963,17.139 -0.90943,2.73444 -0.23705,5.70618 -0.45831,8.54212 -0.0416,12.70834 -0.0829,25.41669 -0.12409,38.12504 0.53951,1.77091 2.87268,0.72058 4.25,1.00341 18.22015,-0.0695 36.44399,0.14962 54.66182,-0.13887 2.13626,0.12673 4.8163,-1.08804 4.70146,-3.57597 0.13159,-6.33749 -0.39464,-12.683 -0.34375,-19.00781 3.74211,-0.27251 8.22951,0.12925 10.93115,-3.04199 2.06671,-2.00986 1.99902,-5.226 0.6543,-7.60596 -2.12762,-4.2892 -5.54254,-7.73731 -8.79248,-11.18213 -0.26437,-6.2866 -0.0652,-12.60832 -0.66993,-18.87256 -1.1759,-3.94875 -5.37255,-5.9172 -9.00732,-7.07031 -4.09937,-1.26779 -8.39761,-1.57522 -12.6665,-1.44922 z"
         style="opacity:1;fill:#ffcc99;fill-opacity:1;stroke:#62370c;stroke-width:0.5;stroke-linecap:round;stroke-linejoin:miter;stroke-miterlimit:4;stroke-dasharray:none;stroke-dashoffset:0;stroke-opacity:1" />
      <path
         inkscape:export-ydpi="32"
         inkscape:export-xdpi="32"
         sodipodi:nodetypes="cccccccccccc"
         inkscape:connector-curvature="0"
         id="path4480"
         d="m 139.83436,59.74668 -1.04101,0.32812 c -2.55701,1.36336 -5.75853,5.13586 -7.13868,9.58594 l 0,15.66016 60.21094,0.0645 c 1.99546,-0.66477 3.38134,-1.69625 3.71289,-3.35937 l -0.0195,-0.75196 c -14.05143,1.05898 -33.64763,-2.66386 -42.23242,-6.41601 -0.69736,-3.31374 -1.5943,-6.45105 -1.20377,-8.07272 -4.43873,-1.03738 -8.35667,-2.20992 -11.13021,-6.01908 -0.39843,-0.34241 -0.78598,-0.68479 -1.15821,-1.01953 z"
         style="fill:#bd8a85;fill-opacity:1;fill-rule:evenodd;stroke:none;stroke-width:1px;stroke-linecap:butt;stroke-linejoin:miter;stroke-opacity:1" />
      <path
         inkscape:export-ydpi="32"
         inkscape:export-xdpi="32"
         sodipodi:nodetypes="cc"
         inkscape:connector-curvature="0"
         id="path4500"
         d="m 194.45155,62.54638 -2.125,-0.125"
         style="fill:none;fill-rule:evenodd;stroke:#bd8a85;stroke-width:2;stroke-linecap:round;stroke-linejoin:miter;stroke-miterlimit:4;stroke-dasharray:none;stroke-opacity:1" />
      <path
         inkscape:export-ydpi="32"
         inkscape:export-xdpi="32"
         sodipodi:nodetypes="cccccccccc"
         inkscape:connector-curvature="0"
         id="path4461"
         d="m 191.86631,85.38455 c 1.99546,-0.66477 3.38076,-1.69563 3.71231,-3.35875 l -0.53033,-19.44544 c 7.59514,-0.021 8.86426,-1.07285 10.47793,-2.4231 3.0892,-3.17449 2.19015,-5.3202 1.76776,-7.42462 -3.27238,-5.916 -5.52282,-8.02278 -9.41726,-12.07259 L 197.52317,23.33593 C 196.7035,5.51304 132.11692,10.29808 131.65424,42.42782 l 0,42.89302 z"
         style="fill:none;fill-opacity:1;fill-rule:evenodd;stroke:#62370c;stroke-width:2;stroke-linecap:butt;stroke-linejoin:miter;stroke-miterlimit:4;stroke-dasharray:none;stroke-opacity:0.98823529" />
      <path
         inkscape:export-ydpi="32"
         inkscape:export-xdpi="32"
         sodipodi:nodetypes="cssssccccccc"
         inkscape:connector-curvature="0"
         id="path4463"
         d="m 124.07655,43.10888 c -0.49339,-9.19337 1.97198,-19.63507 5.6731,-23.41942 0,0 6.56897,-8.42241 13.3263,-11.55632 11.1478,-5.17012 24.56735,-6.77101 36.59277,-4.24264 6.78413,1.42637 15.77834,7.67955 17.31155,10.8137 2.15605,4.40732 1.35564,8.27391 0.75889,11.30483 -18.85076,-1.02474 -33.20115,6.51258 -46.17793,11.29226 2.11456,4.886 5.06179,9.68709 9.54594,15.02602 1.17818,0.39273 -8.44186,5.14099 -10.07627,3.88909 l -12.23681,3.85875 c -2.72313,1.45193 -6.17894,5.6348 -7.38541,10.46016 -6.35503,-8.02078 -6.03282,-17.60154 -7.33213,-27.42643 z"
         style="fill:#9b6a37;fill-opacity:1;fill-rule:evenodd;stroke:#62370c;stroke-width:2;stroke-linecap:butt;stroke-linejoin:miter;stroke-miterlimit:4;stroke-dasharray:none;stroke-opacity:1" />
      <path
         inkscape:export-ydpi="32"
         inkscape:export-xdpi="32"
         transform="translate(-463.79845,-603.87832)"
         clip-path="url(#clipPath4472)"
         sodipodi:nodetypes="csssc"
         inkscape:connector-curvature="0"
         id="path4465"
         d="m 614.65257,660.09472 c -0.0623,-5.43505 -0.3914,-11.95805 -4.59619,-15.2028 -7.27513,-5.61407 -10.80751,9.49076 -7.77818,15.55635 1.74323,3.49047 5.61617,9.76582 9.72272,8.48528 3.65651,-1.1402 2.65165,-8.83883 2.65165,-8.83883 z"
         style="fill:#ffcc99;fill-opacity:1;fill-rule:evenodd;stroke:#62370c;stroke-width:2;stroke-linecap:butt;stroke-linejoin:miter;stroke-miterlimit:4;stroke-dasharray:none;stroke-opacity:1" />
      <path
         inkscape:export-ydpi="32"
         inkscape:export-xdpi="32"
         sodipodi:nodetypes="ccc"
         inkscape:connector-curvature="0"
         id="path4476"
         d="m 143.82655,55.85888 c 2.69449,-4.86146 4.77792,-3.07045 6.875,-3.75 -0.65649,-2.84181 -3.81986,-3.1154 -5,-5.25"
         style="fill:none;fill-rule:evenodd;stroke:#62370b;stroke-width:2;stroke-linecap:round;stroke-linejoin:miter;stroke-miterlimit:4;stroke-dasharray:none;stroke-opacity:0.98823529" />
    </g>
    <g
       id="g4272"
       transform="translate(-118.21429,1.4285714)">
      <path
         inkscape:export-ydpi="32"
         inkscape:export-xdpi="32"
         sodipodi:nodetypes="cc"
         inkscape:connector-curvature="0"
         id="path4478"
         d="m 194.45155,70.85888 c -7.46263,0.13059 -18.08541,0.53186 -20.875,-3"
         style="fill:none;fill-rule:evenodd;stroke:#62370c;stroke-width:2;stroke-linecap:round;stroke-linejoin:miter;stroke-miterlimit:4;stroke-dasharray:none;stroke-opacity:1" />
      <path
         inkscape:export-ydpi="32"
         inkscape:export-xdpi="32"
         style="fill:none;fill-rule:evenodd;stroke:#bd8a85;stroke-width:2;stroke-linecap:round;stroke-linejoin:miter;stroke-miterlimit:4;stroke-dasharray:none;stroke-opacity:1"
         d="m 194.45155,76.04638 c -7.41278,-0.1436 -8.39341,0.44463 -12.125,-1.625"
         id="path4498"
         inkscape:connector-curvature="0"
         sodipodi:nodetypes="cc" />
    </g>
    <g
       id="g4265"
       transform="matrix(0.95006406,0.31205494,-0.31205494,0.95006406,-93.329546,-54.210573)">
      <path
         inkscape:connector-curvature="0"
         inkscape:export-ydpi="32"
         inkscape:export-xdpi="32"
         id="path4539"
         d="m 191.16103,40.58262 -19.07422,4.55078 a 10.5,7.5625 0 0 0 10.49024,7.34961 10.5,7.5625 0 0 0 10.5,-7.5625 10.5,7.5625 0 0 0 -1.91602,-4.33789 z"
         style="opacity:1;fill:#ffffff;fill-opacity:1;stroke:none;stroke-width:2;stroke-linecap:round;stroke-linejoin:miter;stroke-miterlimit:4;stroke-dasharray:none;stroke-dashoffset:0;stroke-opacity:1" />
      <path
         inkscape:connector-curvature="0"
         inkscape:export-ydpi="32"
         inkscape:export-xdpi="32"
         id="path4547"
         d="m 188.10244,41.31309 -9.48047,2.26171 a 5.625,5.625 0 0 0 -0.23242,1.59571 5.625,5.625 0 0 0 5.625,5.625 5.625,5.625 0 0 0 5.625,-5.625 5.625,5.625 0 0 0 -1.53711,-3.85742 z"
         style="opacity:1;fill:#885d30;fill-opacity:1;stroke:none;stroke-width:2;stroke-linecap:round;stroke-linejoin:miter;stroke-miterlimit:4;stroke-dasharray:none;stroke-dashoffset:0;stroke-opacity:1" />
      <path
         inkscape:connector-curvature="0"
         inkscape:export-ydpi="32"
         inkscape:export-xdpi="32"
         id="circle4549"
         d="m 185.07314,42.03574 -3.41992,0.81641 a 3.3125,3.3125 0 0 0 -0.95117,2.31836 3.3125,3.3125 0 0 0 3.3125,3.3125 3.3125,3.3125 0 0 0 3.3125,-3.3125 3.3125,3.3125 0 0 0 -2.25391,-3.13477 z"
         style="opacity:1;fill:#000000;fill-opacity:1;stroke:none;stroke-width:2;stroke-linecap:round;stroke-linejoin:miter;stroke-miterlimit:4;stroke-dasharray:none;stroke-dashoffset:0;stroke-opacity:1" />
      <path
         inkscape:export-ydpi="32"
         inkscape:export-xdpi="32"
         sodipodi:nodetypes="ccc"
         inkscape:connector-curvature="0"
         id="path4560"
         d="m 193.36891,41.10199 c -11.13393,0.67032 -17.47853,2.31568 -21.30159,3.8007 0.90031,2.11615 0.93674,3.83921 3.97748,6.45235"
         style="fill:none;fill-rule:evenodd;stroke:#62370b;stroke-width:2;stroke-linecap:butt;stroke-linejoin:miter;stroke-miterlimit:4;stroke-dasharray:none;stroke-opacity:0.98823529" />
      <circle
         inkscape:export-ydpi="32"
         inkscape:export-xdpi="32"
         r="1.5467961"
         cy="44.765755"
         cx="187.13133"
         id="path4732"
         style="opacity:1;fill:#ffffff;fill-opacity:1;stroke:none;stroke-width:2;stroke-linecap:round;stroke-linejoin:miter;stroke-miterlimit:4;stroke-dasharray:none;stroke-dashoffset:0;stroke-opacity:1" />
    </g>
    <g
       transform="translate(-21.875242,-199.87833)"
       style="display:inline;opacity:1"
       id="g4424">
      <rect
         inkscape:export-ydpi="32"
         inkscape:export-xdpi="32"
         y="305.43964"
         x="34.207275"
         height="45.078056"
         width="62.932503"
         id="rect4429"
         style="opacity:1;fill:#9b8a5e;fill-opacity:1;stroke:#62370c;stroke-width:2;stroke-linecap:square;stroke-linejoin:miter;stroke-miterlimit:4;stroke-dasharray:none;stroke-dashoffset:0;stroke-opacity:1" />
      <rect
         inkscape:export-ydpi="32"
         inkscape:export-xdpi="32"
         style="opacity:1;fill:#70603f;fill-opacity:1;stroke:#62370c;stroke-width:2;stroke-linecap:square;stroke-linejoin:miter;stroke-miterlimit:4;stroke-dasharray:none;stroke-dashoffset:0;stroke-opacity:1"
         id="rect4459"
         width="66.157799"
         height="13.803357"
         x="32.532104"
         y="327.38947" />
      <path
         inkscape:export-ydpi="32"
         inkscape:export-xdpi="32"
         inkscape:connector-curvature="0"
         id="rect4443"
         d="m 62.938951,305.43945 34.20118,13.57813 0,-13.57813 -34.20118,0 z"
         style="opacity:1;fill:#70603f;fill-opacity:1;stroke:#62370c;stroke-width:2;stroke-linecap:square;stroke-linejoin:miter;stroke-miterlimit:4;stroke-dasharray:none;stroke-dashoffset:0;stroke-opacity:1" />
      <path
         inkscape:export-ydpi="32"
         inkscape:export-xdpi="32"
         sodipodi:nodetypes="cccc"
         inkscape:connector-curvature="0"
         id="path4427"
         d="m 33.323411,310.3894 3.80069,-14.93764 60.54602,23.77646 z"
         style="fill:#9b8a5e;fill-opacity:1;fill-rule:evenodd;stroke:#62370c;stroke-width:2;stroke-linecap:butt;stroke-linejoin:miter;stroke-miterlimit:4;stroke-dasharray:none;stroke-opacity:1" />
    </g>
    <g
       style="display:inline;opacity:1"
       id="g4502"
       transform="translate(-594.86989,-569.23547)"
       inkscape:export-xdpi="32"
       inkscape:export-ydpi="32">
      <path
         sodipodi:nodetypes="cccccccccc"
         inkscape:connector-curvature="0"
         id="rect4451"
         d="m 605.11395,757.80804 30.94893,0 10.34144,4.281 0,4.281 -20.64518,0 -9.75505,0 -1.8488,-1.15625 -1.81754,1.15625 -7.2238,0 z"
         style="opacity:1;fill:#785d41;fill-opacity:1;stroke:#62370c;stroke-width:1.93900001;stroke-linecap:square;stroke-linejoin:miter;stroke-miterlimit:4;stroke-dasharray:none;stroke-dashoffset:0;stroke-opacity:1" />
      <path
         id="rect4447"
         d="m 620.5,725.05273 a 17.287281,8.8898106 0 0 0 -17.28711,8.89063 17.287281,8.8898106 0 0 0 0.0371,0.54297 l 0,22.875 34.5,0 0,-23.03516 a 17.287281,8.8898106 0 0 0 0.0371,-0.38281 A 17.287281,8.8898106 0 0 0 620.5,725.05273 Z"
         style="opacity:1;fill:#70603f;fill-opacity:1;stroke:#62370c;stroke-width:2;stroke-linecap:square;stroke-linejoin:miter;stroke-miterlimit:4;stroke-dasharray:none;stroke-dashoffset:0;stroke-opacity:1"
         inkscape:connector-curvature="0" />
      <rect
         style="opacity:1;fill:#9b8a5e;fill-opacity:1;stroke:#62370c;stroke-width:2;stroke-linecap:square;stroke-linejoin:miter;stroke-miterlimit:4;stroke-dasharray:none;stroke-dashoffset:0;stroke-opacity:1"
         id="rect4449"
         width="35.130219"
         height="10.710355"
         x="602.93488"
         y="746.96692" />
    </g>
    <g
       style="display:inline;opacity:1"
       id="g4562"
       inkscape:transform-center-x="-0.70710678"
       inkscape:transform-center-y="20.505155"
       inkscape:export-xdpi="32"
       inkscape:export-ydpi="32"
       transform="translate(-602.73238,-557.09262)">
      <path
         sodipodi:nodetypes="ssszs"
         inkscape:connector-curvature="0"
         id="path4436"
         d="m 735.0776,735.83939 c 4.47232,7.9448 0.5319,12.24748 -3.27368,14.59151 -7.93933,4.89021 -13.73536,3.48843 -16.73637,-3.8882 -2.79611,-6.87295 -1.35233,-15.33596 4.42273,-18.30382 5.77507,-2.96787 11.94753,1.13462 15.58732,7.60051 z"
         style="opacity:1;fill:#ffcc99;fill-opacity:1;stroke:#62370c;stroke-width:2;stroke-linecap:square;stroke-linejoin:miter;stroke-miterlimit:4;stroke-dasharray:none;stroke-dashoffset:0;stroke-opacity:1" />
      <path
         sodipodi:nodetypes="szsss"
         inkscape:connector-curvature="0"
         id="path4431"
         d="m 738.81044,709.32703 c 0,8.27084 -0.17076,29.25654 -13.93763,29.78687 -13.76687,0.53033 -15.35185,-21.51603 -15.35185,-29.78687 0,-8.27084 6.00439,-15.99829 14.64474,-15.99829 8.64035,0 14.64474,7.72745 14.64474,15.99829 z"
         style="opacity:1;fill:#9b8a5e;fill-opacity:1;stroke:#62370c;stroke-width:2;stroke-linecap:square;stroke-linejoin:miter;stroke-miterlimit:4;stroke-dasharray:none;stroke-dashoffset:0;stroke-opacity:1" />
      <rect
         y="728.33051"
         x="710.46558"
         height="11.136931"
         width="27.753941"
         id="rect4434"
         style="opacity:1;fill:#9b8a5e;fill-opacity:1;stroke:#62370c;stroke-width:2;stroke-linecap:square;stroke-linejoin:miter;stroke-miterlimit:4;stroke-dasharray:none;stroke-dashoffset:0;stroke-opacity:1" />
    </g>
    <g
       id="g4241"
       transform="translate(89.999997,0.35714286)">
      <path
         inkscape:export-ydpi="32"
         inkscape:export-xdpi="32"
         style="display:inline;opacity:1;fill:#bd8a85;fill-opacity:1;fill-rule:evenodd;stroke:none;stroke-width:2;stroke-linecap:butt;stroke-linejoin:miter;stroke-miterlimit:4;stroke-dasharray:none;stroke-opacity:1"
         d="m 47.472972,57.260651 20.9375,38.8125 7.3125,0.25 -23,-42 z"
         id="path4618"
         inkscape:connector-curvature="0"
         sodipodi:nodetypes="ccccc" />
      <path
         inkscape:export-ydpi="32"
         inkscape:export-xdpi="32"
         sodipodi:nodetypes="ccccc"
         inkscape:connector-curvature="0"
         id="path4616"
         d="m 49.222972,57.260651 20.9375,38.8125 7.3125,0.25 -23,-42 z"
         style="display:inline;opacity:1;fill:#53472e;fill-opacity:1;fill-rule:evenodd;stroke:#62370c;stroke-width:2;stroke-linecap:butt;stroke-linejoin:miter;stroke-miterlimit:4;stroke-dasharray:none;stroke-opacity:1" />
      <g
         id="g4384"
         style="display:inline;opacity:1"
         transform="translate(-17.589528,-209.16404)">
        <path
           style="opacity:1;fill:#70603f;fill-opacity:1;stroke:#63370c;stroke-width:0.70710677;stroke-linecap:round;stroke-linejoin:miter;stroke-miterlimit:4;stroke-dasharray:none;stroke-dashoffset:0;stroke-opacity:1"
           d="m 71.743331,214.13873 c -9.55154,-1.21416 -19.28491,1.67007 -27.36607,6.695 -8.86913,5.69779 -14.28826,15.97325 -14.73035,26.42684 -1.00616,8.49884 -0.32651,17.05447 -0.49498,25.57391 -0.13055,2.15435 -0.86409,4.31947 -1.42783,6.40332 0.79513,2.01243 3.45478,0.40528 4.95818,0.34676 12.23155,-2.5161 23.61421,-7.85143 34.51255,-13.79848 10.5508,-5.75191 21.46922,-10.9481 32.999319,-14.29543 5.34765,-1.73266 10.93313,-2.80028 16.3188,-4.22862 1.46238,-1.45007 -1.33353,-2.34866 -2.30061,-3.1345 -7.34967,-5.4182 -12.89565,-12.84986 -19.769399,-18.82095 -6.25453,-5.75983 -14.03246,-10.55385 -22.69961,-11.16785 z"
           id="path4587"
           inkscape:connector-curvature="0"
           inkscape:export-xdpi="32"
           inkscape:export-ydpi="32" />
        <path
           inkscape:connector-curvature="0"
           id="path4595"
           d="m 44.377261,220.83373 c -8.86913,5.69779 -14.28826,15.97325 -14.73035,26.42684 -1.00616,8.49884 -0.32651,17.05447 -0.49498,25.57391 -0.13055,2.15435 -0.86409,4.31947 -1.42783,6.40332 0.79513,2.01243 3.45478,0.40528 4.95818,0.34676 l 10.11737,-2.83833 c 2.97666,-16.26459 -8.44441,-36.44779 1.57761,-55.9125 z"
           style="opacity:1;fill:#000000;fill-opacity:0.26530612;stroke:none;stroke-width:0.70710677;stroke-linecap:round;stroke-linejoin:miter;stroke-miterlimit:4;stroke-dasharray:none;stroke-dashoffset:0;stroke-opacity:1"
           sodipodi:nodetypes="ccccccc"
           inkscape:export-xdpi="32"
           inkscape:export-ydpi="32" />
        <path
           inkscape:connector-curvature="0"
           id="path4597"
           d="m 71.590161,214.24933 c 13.69633,6.09484 24.32991,33.1293 36.228989,35.05382 l 8.6938,-2.04112 c 1.46238,-1.45007 -1.33353,-2.34866 -2.30061,-3.1345 -7.34967,-5.4182 -12.89565,-12.84986 -19.769399,-18.82095 -6.25453,-5.75983 -14.18563,-10.44325 -22.85278,-11.05725 z"
           style="opacity:1;fill:#ffffff;fill-opacity:0.24489794;stroke:none;stroke-width:0.70710677;stroke-linecap:round;stroke-linejoin:miter;stroke-miterlimit:4;stroke-dasharray:none;stroke-dashoffset:0;stroke-opacity:0.2142857"
           sodipodi:nodetypes="cccccc"
           inkscape:export-xdpi="32"
           inkscape:export-ydpi="32" />
        <path
           style="fill:none;fill-opacity:1;fill-rule:evenodd;stroke:#63370c;stroke-width:2;stroke-linecap:butt;stroke-linejoin:miter;stroke-miterlimit:4;stroke-dasharray:none;stroke-opacity:1"
           d="m 121.9475,246.51887 c -54.291529,9.73022 -54.695839,28.19281 -98.738199,35.06435 16.30619,-1.9507 -10.88932,-49.92394 29.32574,-65.00253 40.21506,-15.0786 52.687059,31.36596 69.412459,29.93818 z"
           id="path4585"
           inkscape:connector-curvature="0"
           sodipodi:nodetypes="cczc"
           inkscape:export-xdpi="32"
           inkscape:export-ydpi="32" />
        <path
           style="fill:#885d30;fill-opacity:1;fill-rule:evenodd;stroke:#62370c;stroke-width:2;stroke-linecap:butt;stroke-linejoin:miter;stroke-miterlimit:4;stroke-dasharray:none;stroke-opacity:1"
           d="m 29.257541,267.07911 c 0.90537,3.28569 58.50954,-28.67521 76.721079,-30.22882 l 4.06587,3.88909 c -31.857899,7.41887 -47.663189,20.70485 -80.875339,31.46625 z"
           id="path4620"
           inkscape:connector-curvature="0"
           sodipodi:nodetypes="ccccc"
           inkscape:export-xdpi="32"
           inkscape:export-ydpi="32" />
      </g>
    </g>
    <g
       style="display:inline;opacity:1"
       id="g5352"
       transform="matrix(1.1688177,3.6844123e-5,-3.6844123e-5,1.1688177,-340.84747,-158.5818)">
      <g
         id="g5354"
         transform="translate(43.5,-79)">
        <path
           style="display:inline;opacity:1;fill:#8d4600;fill-opacity:1;fill-rule:evenodd;stroke:#62370c;stroke-width:2;stroke-linecap:butt;stroke-linejoin:miter;stroke-miterlimit:4;stroke-dasharray:none;stroke-opacity:1"
           d="m 259.21452,417.94904 35.32367,-9.75 5.5,0 c 1.722,-4.6301 4.27925,-7.4505 8,-7.75 l 38.75,0 0,-6.5 -52.25,0 -6,5.75 -29.32367,0 c 0,6.0833 0,12.1667 0,18.25 z"
           id="path5356"
           inkscape:connector-curvature="0"
           sodipodi:nodetypes="cccccccccc" />
        <path
           style="display:inline;opacity:1;fill:#000000;fill-opacity:1;fill-rule:evenodd;stroke:#62370c;stroke-width:2;stroke-linecap:butt;stroke-linejoin:miter;stroke-miterlimit:4;stroke-dasharray:none;stroke-opacity:1"
           d="m 299.04375,391.4546 88.48888,0 0,4.3602 -88.48888,0 z"
           id="path5358"
           inkscape:connector-curvature="0"
           sodipodi:nodetypes="ccccc" />
        <path
           style="display:inline;opacity:1;fill:none;fill-rule:evenodd;stroke:#62370c;stroke-width:2;stroke-linecap:butt;stroke-linejoin:miter;stroke-miterlimit:4;stroke-dasharray:none;stroke-opacity:1"
           d="m 323.78819,400.94904 c 0,0 0.51982,4.25 4.125,4.25 3.60518,0 3.625,-4.25 3.625,-4.25 z"
           id="path5360"
           inkscape:connector-curvature="0"
           sodipodi:nodetypes="czcc" />
      </g>
    </g>
  </g>
</svg>
